<svg width="85" height="22" viewBox="0 0 85 22" fill="none" xmlns="http://www.w3.org/2000/svg">
<path d="M73.782 5.13951L71.9894 16.4569C71.9827 16.4985 71.9851 16.541 71.9965 16.5815C72.0079 16.6221 72.0279 16.6596 72.0553 16.6915C72.0826 16.7234 72.1165 16.7489 72.1547 16.7663C72.1929 16.7836 72.2344 16.7924 72.2763 16.7919H74.3977C74.4726 16.7925 74.5452 16.7662 74.6024 16.7177C74.6596 16.6692 74.6977 16.6017 74.7096 16.5274L76.5022 5.21C76.5089 5.16844 76.5065 5.12591 76.4951 5.08539C76.4838 5.04487 76.4637 5.00733 76.4364 4.97542C76.4091 4.94351 76.3751 4.91799 76.3369 4.90065C76.2987 4.88332 76.2572 4.87458 76.2154 4.87506H74.0939C74.0188 4.87357 73.9458 4.89958 73.8884 4.94824C73.831 4.99691 73.7932 5.06489 73.782 5.13951ZM71.5167 8.4422H69.5038C69.4291 8.44147 69.3565 8.4677 69.2994 8.51615C69.2422 8.56459 69.2043 8.63203 69.1924 8.7062L69.1258 9.12286C69.1258 9.12286 67.5625 7.41943 64.7945 8.57061C63.2065 9.22971 62.4443 10.5915 62.1199 11.5891C62.1199 11.5891 61.0904 14.6211 63.4188 16.2899C63.4188 16.2899 65.5777 17.895 68.0088 16.1911L67.9668 16.4569C67.9571 16.5194 67.968 16.5833 67.9978 16.6389C68.0277 16.6945 68.0749 16.7388 68.1321 16.7649C68.1701 16.7829 68.2117 16.7919 68.2537 16.7919H70.2679C70.343 16.7934 70.416 16.7674 70.4734 16.7187C70.5308 16.67 70.5686 16.602 70.5798 16.5274L71.8049 8.77714C71.8118 8.73563 71.8093 8.69311 71.7978 8.65265C71.7863 8.61219 71.766 8.57481 71.7383 8.54322C71.711 8.51103 71.6771 8.48526 71.6388 8.46773C71.6005 8.45019 71.5588 8.44177 71.5167 8.4422ZM68.5548 12.7255C68.4763 13.267 68.2038 13.7611 67.7885 14.1151C67.3715 14.4703 66.8407 14.6622 66.294 14.6552C66.0796 14.6577 65.8661 14.6265 65.6613 14.5627C64.7923 14.2843 64.2963 13.4519 64.4388 12.5495C64.518 12.0082 64.7907 11.5145 65.206 11.1608C65.6227 10.8053 66.1531 10.6129 66.6997 10.6189C66.9141 10.6166 67.1276 10.6481 67.3324 10.7122C68.2068 10.9888 68.7005 11.8226 68.5571 12.7259H68.5548V12.7255ZM57.8064 12.9396C58.898 12.9396 59.9538 12.5499 60.783 11.8414C61.6106 11.1353 62.1585 10.1543 62.3272 9.07661C62.6797 6.83486 60.9242 4.8782 58.4355 4.8782H54.4263C54.3515 4.87748 54.2789 4.90378 54.2217 4.95232C54.1646 5.00085 54.1266 5.06839 54.1149 5.14265L52.3218 16.4601C52.3121 16.5225 52.323 16.5864 52.3528 16.6421C52.3827 16.6977 52.4299 16.742 52.4871 16.7681C52.5256 16.786 52.5667 16.795 52.6087 16.795H54.7315C54.8063 16.7957 54.8789 16.7694 54.936 16.7209C54.9932 16.6724 55.0311 16.6048 55.0429 16.5306L55.5692 13.2072C55.5803 13.1325 55.6181 13.0644 55.6755 13.0157C55.7328 12.9669 55.806 12.9408 55.8811 12.9423L57.8064 12.9396ZM59.582 8.97469C59.4511 9.80351 58.8086 10.4137 57.5794 10.4137H56.008L56.4852 7.39967H58.0285C59.2992 7.40192 59.7129 8.14947 59.582 8.97694V8.97469Z" fill="#0070E0"/>
<path d="M49.9015 8.63464L47.4736 12.7226L46.2413 8.66472C46.222 8.59996 46.1823 8.54326 46.1281 8.50317C46.0739 8.46308 46.0083 8.44178 45.941 8.44247H43.7499C43.6932 8.4417 43.6381 8.46155 43.5948 8.49834C43.5516 8.53514 43.523 8.58642 43.5144 8.64272C43.5091 8.68005 43.5129 8.71812 43.5256 8.75362L45.7337 15.5889L43.7364 18.8099C43.7195 18.8364 43.7081 18.8661 43.703 18.8972C43.6978 18.9283 43.6991 18.9601 43.7066 18.9907C43.7141 19.0213 43.7278 19.05 43.7468 19.0751C43.7657 19.1002 43.7896 19.1212 43.8169 19.1367C43.8534 19.1578 43.8949 19.1687 43.9371 19.1681H46.2971C46.3645 19.1684 46.4307 19.1511 46.4895 19.1181C46.5483 19.0851 46.5976 19.0374 46.6327 18.9796L52.8004 8.80255C52.8228 8.76712 52.835 8.72621 52.8359 8.68426C52.8368 8.64232 52.8262 8.60093 52.8053 8.5646C52.7845 8.52813 52.7543 8.49795 52.7179 8.47718C52.6815 8.45641 52.6403 8.44583 52.5984 8.44651H50.2393C50.1716 8.44589 50.1049 8.46289 50.0457 8.49586C49.9865 8.52882 49.9369 8.57664 49.9015 8.63464ZM42.5077 8.44247H40.4931C40.4181 8.44175 40.3454 8.4681 40.2882 8.51672C40.2309 8.56534 40.193 8.63299 40.1812 8.70737L40.116 9.12358C40.116 9.12358 38.5512 7.42015 35.7833 8.57133C34.1957 9.23043 33.433 10.5922 33.11 11.5898C33.11 11.5898 32.0797 14.6218 34.4075 16.2906C34.4075 16.2906 36.567 17.8957 38.998 16.1919L38.956 16.4577C38.9462 16.5201 38.957 16.5841 38.9869 16.6398C39.0167 16.6954 39.064 16.7396 39.1214 16.7657C39.1593 16.7836 39.2009 16.7926 39.2429 16.7926H41.2571C41.3319 16.7931 41.4044 16.7668 41.4615 16.7183C41.5186 16.6698 41.5566 16.6023 41.5685 16.5281L42.7941 8.77786C42.8041 8.71534 42.7933 8.65125 42.7635 8.5955C42.7336 8.53975 42.6863 8.49544 42.6288 8.46941C42.5907 8.45178 42.5497 8.44259 42.5077 8.44247ZM39.5454 12.7266C39.4661 13.2675 39.1935 13.7608 38.7787 14.1144C38.3618 14.4697 37.8315 14.6619 37.285 14.6559C37.0709 14.6583 36.8577 14.6271 36.6532 14.5634C35.7846 14.285 35.2891 13.4526 35.4316 12.5497C35.511 12.0073 35.7848 11.5127 36.2015 11.1588C36.6198 10.8033 37.1519 10.6118 37.6996 10.6196C37.9141 10.6173 38.1281 10.6488 38.3327 10.713C39.1982 10.9895 39.691 11.8228 39.5481 12.7266H39.5454ZM28.7974 12.9403C29.8871 12.9398 30.9412 12.5501 31.7714 11.8408C32.5982 11.1347 33.1454 10.154 33.3137 9.07688C33.6667 6.83558 31.9108 4.87892 29.4229 4.87892H25.4133C25.3385 4.87817 25.2659 4.90439 25.2086 4.95283C25.1514 5.00126 25.1134 5.06871 25.1014 5.14292L23.3142 16.4572C23.3042 16.5197 23.315 16.5838 23.3448 16.6396C23.3747 16.6953 23.422 16.7396 23.4795 16.7657C23.5175 16.7832 23.559 16.7926 23.601 16.7926H25.7225C25.7974 16.7933 25.8701 16.767 25.9274 16.7183C25.9846 16.6697 26.0226 16.6021 26.0343 16.5277L26.5598 13.2044C26.571 13.1297 26.6088 13.0617 26.6661 13.0131C26.7235 12.9644 26.7966 12.9384 26.8717 12.9399L28.7974 12.9403ZM30.573 8.97496C30.4421 9.80378 29.8 10.4139 28.5709 10.4139H26.9994L27.4757 7.39994H29.019C30.2902 7.40219 30.7035 8.15019 30.573 8.97721V8.97496Z" fill="#003087"/>
<path d="M15.0835 5.45913C15.1313 2.96011 13.08 1.04297 10.2593 1.04297H4.42484C4.28887 1.0429 4.15736 1.09163 4.05398 1.18036C3.9506 1.2691 3.88215 1.39202 3.86096 1.52697L1.52326 16.2055C1.5128 16.272 1.51681 16.34 1.53502 16.4048C1.55322 16.4696 1.58519 16.5297 1.62871 16.5809C1.67224 16.6321 1.72629 16.6732 1.78715 16.7014C1.84801 16.7296 1.91422 16.7442 1.98124 16.7442H5.43775L4.89756 20.143C4.8871 20.2095 4.89111 20.2775 4.90932 20.3423C4.92752 20.4071 4.95949 20.4672 5.00301 20.5184C5.04654 20.5696 5.10059 20.6108 5.16145 20.639C5.22231 20.6672 5.28852 20.6818 5.35554 20.6818H8.17133C8.30716 20.6818 8.42824 20.6328 8.5319 20.5444C8.63467 20.4555 8.65164 20.3329 8.67309 20.1978L9.49969 15.3111C9.52069 15.1764 9.58905 15.0013 9.69226 14.9124C9.79547 14.8235 9.88573 14.775 10.022 14.775H11.7449C14.5075 14.775 16.851 12.8017 17.2795 10.0576C17.5829 8.10991 16.7518 6.33779 15.0835 5.45913Z" fill="#001C64"/>
<path d="M6.18655 11.3331L5.32555 16.8188L4.78491 20.2598C4.77452 20.3263 4.77859 20.3943 4.79685 20.4591C4.81512 20.5238 4.84713 20.5839 4.8907 20.635C4.93427 20.6862 4.98835 20.7273 5.04923 20.7554C5.1101 20.7836 5.17633 20.7981 5.24334 20.7981H8.22355C8.35938 20.798 8.49073 20.7492 8.59394 20.6605C8.69715 20.5718 8.76545 20.4489 8.78653 20.3141L9.57202 15.3129C9.59319 15.178 9.66157 15.0552 9.76486 14.9664C9.86815 14.8777 9.99956 14.8289 10.1354 14.8289H11.8896C14.6522 14.8289 16.9957 12.804 17.4247 10.0598C17.7285 8.11216 16.7527 6.33959 15.0843 5.46094C15.0798 5.66837 15.062 5.87535 15.0302 6.08053C14.6017 8.82379 12.2573 10.8491 9.49561 10.8491H6.74997C6.61405 10.8493 6.48263 10.8982 6.37936 10.987C6.27608 11.0758 6.20771 11.1982 6.18655 11.3331Z" fill="#0070E0"/>
<path d="M5.32506 16.8175H1.85782C1.79082 16.8175 1.72462 16.8028 1.66378 16.7746C1.60294 16.7464 1.54891 16.7053 1.50541 16.6541C1.46192 16.6029 1.43 16.5428 1.41185 16.478C1.3937 16.4132 1.38976 16.3452 1.40029 16.2787L3.73799 1.38244C3.75917 1.24756 3.82755 1.12471 3.93084 1.03598C4.03413 0.947253 4.16553 0.89848 4.30142 0.898438H10.2601C13.0808 0.898438 15.1321 2.96105 15.0842 5.45962C14.3823 5.08966 13.5575 4.87819 12.6541 4.87819H7.68644C7.55048 4.87813 7.41896 4.92685 7.31558 5.01559C7.2122 5.10432 7.14375 5.22724 7.12257 5.36219L6.18695 11.3318L5.32461 16.8175H5.32506Z" fill="#003087"/>
</svg>
