<svg width="18" height="20" viewBox="0 0 18 20" fill="none" xmlns="http://www.w3.org/2000/svg">
<path d="M7.11942 7.96327V7.21495C6.86173 7.17984 6.60018 7.1582 6.33331 7.1582C3.11698 7.1582 0.5 9.76624 0.5 12.9721C0.5 14.939 1.48589 16.6795 2.99055 17.7318C2.01962 16.693 1.42412 15.3017 1.42412 13.7733C1.42412 10.6136 3.96679 8.03685 7.1199 7.96327H7.11942Z" fill="#25F4EE"/>
<path d="M7.25716 16.4283C8.69233 16.4283 9.86304 15.2904 9.91612 13.8731L9.92143 1.21527H12.2416C12.1934 0.955093 12.1668 0.6877 12.1668 0.413574H8.99779L8.99248 13.0715C8.9394 14.4887 7.76868 15.6266 6.33352 15.6266C5.88762 15.6266 5.46731 15.5155 5.09766 15.3217C5.58167 15.9906 6.36827 16.4283 7.25716 16.4283Z" fill="#25F4EE"/>
<path d="M16.5751 5.51155V4.80796C15.6901 4.80796 14.8654 4.54585 14.1738 4.09619C14.7896 4.80074 15.6259 5.30908 16.5751 5.51155Z" fill="#25F4EE"/>
<path d="M14.1754 4.09605C13.5007 3.32417 13.091 2.31664 13.091 1.21484H12.2422C12.4656 2.41811 13.1822 3.45065 14.1754 4.09605Z" fill="#FE2C55"/>
<path d="M6.33419 10.317C4.86525 10.317 3.66992 11.5082 3.66992 12.9721C3.66992 13.9917 4.25045 14.8775 5.09833 15.3219C4.78225 14.8852 4.59404 14.3514 4.59404 13.7733C4.59404 12.3094 5.78937 11.1182 7.25832 11.1182C7.53242 11.1182 7.79542 11.1634 8.04443 11.2408V8.01622C7.78673 7.98111 7.52518 7.95947 7.25832 7.95947C7.21199 7.95947 7.16663 7.96188 7.12078 7.96284V10.4391C6.87178 10.3617 6.60878 10.3165 6.33468 10.3165L6.33419 10.317Z" fill="#FE2C55"/>
<path d="M16.576 5.51123V7.96586C14.9329 7.96586 13.4099 7.44213 12.1668 6.55291V12.9718C12.1668 16.1776 9.54982 18.7852 6.33348 18.7852C5.09038 18.7852 3.938 18.3947 2.99023 17.7315C4.05575 18.8717 5.57392 19.5864 7.25712 19.5864C10.4739 19.5864 13.0904 16.9783 13.0904 13.773V7.35461C14.3335 8.24383 15.8565 8.76756 17.4997 8.76756V5.60886C17.1826 5.60886 16.8738 5.57471 16.576 5.51123Z" fill="#FE2C55"/>
<path d="M12.1668 12.972V6.55308C13.4099 7.44231 14.9329 7.96603 16.5761 7.96603V5.5114C15.6268 5.30894 14.7906 4.80108 14.1748 4.09605C13.1817 3.45065 12.465 2.41859 12.2416 1.21484H9.92142L9.91611 13.8727C9.86302 15.29 8.69231 16.4279 7.25714 16.4279C6.36825 16.4279 5.58166 15.9902 5.09764 15.3213C4.24976 14.8764 3.66923 13.9905 3.66923 12.9715C3.66923 11.5075 4.86456 10.3163 6.3335 10.3163C6.6076 10.3163 6.8706 10.3615 7.11961 10.4389V7.96267C3.96649 8.03625 1.42383 10.613 1.42383 13.7727C1.42383 15.3011 2.01932 16.6924 2.99025 17.7312C3.93754 18.3939 5.0904 18.7849 6.3335 18.7849C9.54984 18.7849 12.1668 16.1768 12.1668 12.9715V12.972Z" fill="black"/>
</svg>
