<svg width="20" height="16" viewBox="0 0 20 16" fill="none" xmlns="http://www.w3.org/2000/svg">
<g clip-path="url(#clip0_1719_68856)">
<path d="M19.582 3.17123C19.352 2.30807 18.6744 1.62836 17.8139 1.39768C16.2542 0.978443 10 0.978443 10 0.978443C10 0.978443 3.74583 0.978443 2.18612 1.39768C1.32564 1.62836 0.647904 2.30807 0.417924 3.17123C0 4.73565 0 7.99972 0 7.99972C0 7.99972 0 11.2637 0.417924 12.8283C0.647904 13.6914 1.32564 14.3711 2.18612 14.6019C3.74583 15.021 10 15.021 10 15.021C10 15.021 16.2542 15.021 17.8139 14.6019C18.6744 14.3711 19.352 13.6914 19.582 12.8283C20 11.2637 20 7.99972 20 7.99972C20 7.99972 20 4.73565 19.582 3.17123Z" fill="#ED1D24"/>
<path d="M7.95508 10.9634L13.1824 8L7.95508 5.03635V10.9634Z" fill="white"/>
</g>
<defs>
<clipPath id="clip0_1719_68856">
<rect width="20" height="14.0426" fill="white" transform="translate(0 0.978516)"/>
</clipPath>
</defs>
</svg>
