<svg width="906" height="639" viewBox="0 0 906 639" fill="none" xmlns="http://www.w3.org/2000/svg">
<path d="M471.304 615.204C509.018 614.58 539.405 621.21 539.174 630.013C538.943 638.816 504.821 645.27 467.157 646.405C430.653 647.505 402.367 641.078 402.598 632.275C402.829 623.472 433.59 615.829 471.304 615.204Z" fill="#E5D602"/>
<mask id="mask0_735_67324" style="mask-type:luminance" maskUnits="userSpaceOnUse" x="152" y="288" width="644" height="644">
<path d="M152.156 434.288L649.734 288.841L795.181 786.419L297.603 931.866L152.156 434.288Z" fill="white"/>
</mask>
<g mask="url(#mask0_735_67324)">
<path d="M542.064 499.384L543.565 498.488L543.677 496.743L544.994 497.894L546.688 497.461L546 499.069L546.935 500.547L545.194 500.39L544.077 501.735L543.688 500.03L542.064 499.384Z" fill="#F20519"/>
<path d="M426.373 467.77L427.874 466.873L427.987 465.128L429.303 466.279L430.997 465.847L430.31 467.454L431.244 468.932L429.503 468.775L428.387 470.12L427.998 468.416L426.373 467.77Z" fill="#F20519"/>
<path d="M525.674 501.765L527.175 500.869L527.287 499.124L528.604 500.275L530.298 499.842L529.611 501.45L530.545 502.927L528.804 502.77L527.687 504.116L527.299 502.411L525.674 501.765Z" fill="#176FA6"/>
<path d="M452.025 484.695L453.526 483.799L453.638 482.054L454.954 483.205L456.649 482.772L455.961 484.38L456.896 485.858L455.154 485.701L454.038 487.046L453.649 485.342L452.025 484.695Z" fill="#176FA6"/>
<path d="M518.993 508.177L520.494 507.281L520.607 505.536L521.923 506.687L523.617 506.254L522.93 507.862L523.865 509.34L522.123 509.183L521.007 510.528L520.618 508.823L518.993 508.177Z" fill="#F2E205"/>
<path d="M379.436 506.149L380.937 505.253L381.049 503.508L382.366 504.658L384.06 504.226L383.372 505.834L384.307 507.311L382.566 507.154L381.449 508.5L381.06 506.795L379.436 506.149Z" fill="#F2E205"/>
<path d="M404.757 471.237L407.051 472.583L407.225 474.756L404.931 473.409L404.757 471.237Z" fill="#176FA6"/>
<path d="M475.647 483.672L477.941 485.019L478.115 487.191L475.821 485.844L475.647 483.672Z" fill="#176FA6"/>
<path d="M488.432 487.914L490.726 489.261L490.9 491.433L488.606 490.086L488.432 487.914Z" fill="#F205B3"/>
<path d="M408.039 492.573L410.333 493.919L410.507 496.091L408.213 494.745L408.039 492.573Z" fill="#F205B3"/>
<path d="M470.287 476.736C470.222 475.923 470.829 475.211 471.642 475.146C472.454 475.081 473.167 475.687 473.232 476.5C473.297 477.312 472.69 478.025 471.877 478.09C471.065 478.155 470.352 477.548 470.287 476.736Z" fill="#F29F05"/>
<path d="M447.88 485.681C447.815 484.869 448.422 484.156 449.234 484.091C450.047 484.026 450.759 484.633 450.824 485.445C450.89 486.258 450.283 486.97 449.47 487.035C448.658 487.1 447.945 486.494 447.88 485.681Z" fill="#F29F05"/>
<path d="M502.844 557.41C496.852 557.696 503.882 547.916 516.126 541.519" stroke="#F205B3" stroke-width="3.3615"/>
<path d="M432.463 517.395C430.34 523.005 424.167 512.664 423.174 498.885" stroke="#F205B3" stroke-width="3.3615"/>
<path d="M423.223 550.606C416.943 547.413 409.559 541.997 412.482 547.665C416.313 555.092 421.556 551.13 419.595 540.185" stroke="#F2E205" stroke-width="3.3615"/>
<path d="M494.137 521.954C494.535 514.92 496.526 505.982 492.512 510.937C487.251 517.43 492.986 520.638 502.22 514.443" stroke="#F2E205" stroke-width="3.3615"/>
</g>
<mask id="mask1_735_67324" style="mask-type:luminance" maskUnits="userSpaceOnUse" x="239" y="227" width="644" height="644">
<path d="M239.426 373.189L737.004 227.743L882.451 725.321L384.873 870.767L239.426 373.189Z" fill="white"/>
</mask>
<g mask="url(#mask1_735_67324)">
<path d="M629.333 438.286L630.834 437.389L630.947 435.645L632.263 436.795L633.957 436.363L633.27 437.97L634.204 439.448L632.463 439.291L631.347 440.636L630.958 438.932L629.333 438.286Z" fill="#F20519"/>
<path d="M513.643 406.671L515.144 405.775L515.256 404.03L516.573 405.18L518.267 404.748L517.579 406.356L518.514 407.833L516.773 407.676L515.656 409.022L515.267 407.317L513.643 406.671Z" fill="#F20519"/>
<path d="M612.944 440.667L614.445 439.77L614.557 438.025L615.873 439.176L617.567 438.744L616.88 440.351L617.815 441.829L616.073 441.672L614.957 443.017L614.568 441.313L612.944 440.667Z" fill="#176FA6"/>
<path d="M539.294 423.597L540.795 422.7L540.908 420.956L542.224 422.106L543.918 421.674L543.231 423.281L544.165 424.759L542.424 424.602L541.308 425.947L540.919 424.243L539.294 423.597Z" fill="#176FA6"/>
<path d="M606.263 447.079L607.764 446.182L607.876 444.438L609.193 445.588L610.887 445.156L610.199 446.763L611.134 448.241L609.393 448.084L608.276 449.429L607.887 447.725L606.263 447.079Z" fill="#F2E205"/>
<path d="M466.705 445.05L468.206 444.154L468.319 442.409L469.635 443.56L471.329 443.127L470.642 444.735L471.576 446.213L469.835 446.056L468.719 447.401L468.33 445.697L466.705 445.05Z" fill="#F2E205"/>
<path d="M492.026 410.138L494.32 411.485L494.494 413.657L492.2 412.31L492.026 410.138Z" fill="#176FA6"/>
<path d="M562.917 422.574L565.211 423.92L565.385 426.092L563.091 424.746L562.917 422.574Z" fill="#176FA6"/>
<path d="M575.702 426.816L577.996 428.163L578.17 430.335L575.876 428.988L575.702 426.816Z" fill="#F205B3"/>
<path d="M495.308 431.474L497.602 432.821L497.776 434.993L495.482 433.646L495.308 431.474Z" fill="#F205B3"/>
<path d="M557.557 415.637C557.492 414.825 558.099 414.112 558.911 414.047C559.724 413.982 560.436 414.589 560.501 415.401C560.566 416.214 559.96 416.926 559.147 416.991C558.335 417.057 557.622 416.45 557.557 415.637Z" fill="#F29F05"/>
<path d="M535.15 424.582C535.084 423.77 535.691 423.057 536.504 422.992C537.316 422.927 538.029 423.534 538.094 424.347C538.159 425.159 537.552 425.872 536.74 425.937C535.927 426.002 535.215 425.395 535.15 424.582Z" fill="#F29F05"/>
<path d="M590.114 496.311C584.122 496.597 591.151 486.817 603.395 480.421" stroke="#F205B3" stroke-width="3.3615"/>
<path d="M519.733 456.296C517.609 461.907 511.436 451.565 510.443 437.787" stroke="#F205B3" stroke-width="3.3615"/>
<path d="M510.493 489.507C504.212 486.315 496.828 480.899 499.751 486.566C503.582 493.994 508.825 490.032 506.865 479.087" stroke="#F2E205" stroke-width="3.3615"/>
<path d="M581.406 460.855C581.805 453.821 583.796 444.883 579.781 449.838C574.52 456.331 580.255 459.539 589.489 453.345" stroke="#F2E205" stroke-width="3.3615"/>
</g>
<mask id="mask2_735_67324" style="mask-type:luminance" maskUnits="userSpaceOnUse" x="62" y="187" width="644" height="644">
<path d="M62.4863 333.093L560.064 187.646L705.511 685.224L207.933 830.671L62.4863 333.093Z" fill="white"/>
</mask>
<g mask="url(#mask2_735_67324)">
<path d="M452.394 398.19L453.895 397.293L454.007 395.548L455.324 396.699L457.018 396.267L456.33 397.874L457.265 399.352L455.524 399.195L454.407 400.54L454.018 398.836L452.394 398.19Z" fill="#F20519"/>
<path d="M336.703 366.574L338.204 365.678L338.317 363.933L339.633 365.084L341.327 364.651L340.64 366.259L341.574 367.737L339.833 367.58L338.717 368.925L338.328 367.22L336.703 366.574Z" fill="#F20519"/>
<path d="M436.004 400.57L437.505 399.673L437.617 397.929L438.934 399.079L440.628 398.647L439.941 400.255L440.875 401.732L439.134 401.575L438.017 402.921L437.629 401.216L436.004 400.57Z" fill="#176FA6"/>
<path d="M362.355 383.5L363.856 382.604L363.968 380.859L365.285 382.009L366.979 381.577L366.291 383.185L367.226 384.662L365.485 384.505L364.368 385.851L363.979 384.146L362.355 383.5Z" fill="#176FA6"/>
<path d="M429.323 406.982L430.824 406.086L430.937 404.341L432.253 405.491L433.947 405.059L433.26 406.667L434.195 408.144L432.453 407.987L431.337 409.333L430.948 407.628L429.323 406.982Z" fill="#F2E205"/>
<path d="M289.766 404.954L291.267 404.057L291.379 402.313L292.696 403.463L294.39 403.031L293.702 404.638L294.637 406.116L292.896 405.959L291.779 407.304L291.39 405.6L289.766 404.954Z" fill="#F2E205"/>
<path d="M315.087 370.041L317.381 371.388L317.555 373.56L315.261 372.213L315.087 370.041Z" fill="#176FA6"/>
<path d="M385.977 382.477L388.271 383.824L388.445 385.996L386.151 384.649L385.977 382.477Z" fill="#176FA6"/>
<path d="M398.762 386.719L401.056 388.066L401.23 390.238L398.937 388.891L398.762 386.719Z" fill="#F205B3"/>
<path d="M318.369 391.377L320.663 392.724L320.837 394.896L318.543 393.549L318.369 391.377Z" fill="#F205B3"/>
<path d="M380.618 375.54C380.553 374.728 381.16 374.015 381.973 373.95C382.785 373.885 383.498 374.492 383.563 375.305C383.628 376.117 383.021 376.83 382.209 376.895C381.396 376.96 380.683 376.353 380.618 375.54Z" fill="#F29F05"/>
<path d="M358.21 384.486C358.145 383.673 358.752 382.961 359.564 382.896C360.377 382.831 361.089 383.437 361.155 384.25C361.22 385.062 360.613 385.775 359.8 385.84C358.988 385.905 358.275 385.298 358.21 384.486Z" fill="#F29F05"/>
<path d="M413.174 456.215C407.182 456.5 414.212 446.72 426.456 440.324" stroke="#F205B3" stroke-width="3.3615"/>
<path d="M342.793 416.2C340.67 421.811 334.497 411.469 333.504 397.691" stroke="#F205B3" stroke-width="3.3615"/>
<path d="M333.553 449.41C327.273 446.218 319.889 440.802 322.812 446.47C326.643 453.897 331.886 449.935 329.925 438.99" stroke="#F2E205" stroke-width="3.3615"/>
<path d="M404.467 420.759C404.865 413.725 406.856 404.787 402.842 409.741C397.581 416.234 403.316 419.443 412.55 413.248" stroke="#F2E205" stroke-width="3.3615"/>
</g>
<mask id="mask3_735_67324" style="mask-type:luminance" maskUnits="userSpaceOnUse" x="148" y="208" width="644" height="644">
<path d="M645.88 208.212L148.302 353.659L293.749 851.237L791.327 705.79L645.88 208.212Z" fill="white"/>
</mask>
<g mask="url(#mask3_735_67324)">
<path d="M352.419 473.064L350.671 473.117L349.637 471.708L349.147 473.386L347.487 473.934L348.932 474.919L348.941 476.667L350.323 475.597L351.989 476.129L351.398 474.484L352.419 473.064Z" fill="#F20519"/>
<path d="M432.868 384.115L431.121 384.169L430.086 382.759L429.597 384.437L427.936 384.986L429.381 385.97L429.39 387.718L430.772 386.648L432.438 387.18L431.847 385.535L432.868 384.115Z" fill="#F20519"/>
<path d="M367.511 466.242L365.763 466.295L364.729 464.886L364.239 466.564L362.579 467.113L364.024 468.097L364.032 469.845L365.415 468.775L367.08 469.307L366.49 467.662L367.511 466.242Z" fill="#176FA6"/>
<path d="M420.371 412.192L418.624 412.245L417.589 410.836L417.1 412.514L415.439 413.062L416.884 414.047L416.893 415.795L418.275 414.725L419.941 415.257L419.35 413.611L420.371 412.192Z" fill="#176FA6"/>
<path d="M376.593 468.047L374.845 468.1L373.811 466.69L373.321 468.369L371.661 468.917L373.106 469.901L373.114 471.649L374.497 470.579L376.162 471.112L375.572 469.466L376.593 468.047Z" fill="#F2E205"/>
<path d="M493.087 391.172L491.339 391.225L490.305 389.816L489.815 391.494L488.155 392.042L489.6 393.027L489.609 394.775L490.991 393.705L492.657 394.237L492.066 392.591L493.087 391.172Z" fill="#F2E205"/>
<path d="M452.948 375.394L451.741 377.764L452.764 379.688L453.972 377.317L452.948 375.394Z" fill="#176FA6"/>
<path d="M399.916 424.054L398.709 426.424L399.732 428.348L400.939 425.978L399.916 424.054Z" fill="#176FA6"/>
<path d="M391.429 434.514L390.222 436.884L391.245 438.808L392.452 436.438L391.429 434.514Z" fill="#F205B3"/>
<path d="M461.674 395.139L460.467 397.509L461.49 399.433L462.697 397.062L461.674 395.139Z" fill="#F205B3"/>
<path d="M400.696 415.322C400.313 414.603 399.418 414.329 398.699 414.712C397.979 415.095 397.705 415.99 398.088 416.71C398.471 417.429 399.366 417.703 400.086 417.32C400.805 416.937 401.079 416.042 400.696 415.322Z" fill="#F29F05"/>
<path d="M424.394 410.79C424.012 410.071 423.117 409.797 422.397 410.18C421.677 410.563 421.404 411.458 421.786 412.177C422.169 412.897 423.064 413.171 423.784 412.788C424.504 412.405 424.777 411.51 424.394 410.79Z" fill="#F29F05"/>
<path d="M416.717 500.83C421.919 497.843 410.729 493.389 396.968 494.594" stroke="#F205B3" stroke-width="3.3615"/>
<path d="M454.465 429.209C459.276 432.792 458.907 420.753 452.322 408.609" stroke="#F205B3" stroke-width="3.3615"/>
<path d="M480.137 452.214C483.709 446.141 487.014 437.601 487.603 443.951C488.376 452.272 481.825 451.758 477.581 441.48" stroke="#F2E205" stroke-width="3.3615"/>
<path d="M404.957 466.266C400.832 460.554 394.341 454.096 400.392 456.108C408.322 458.746 405.217 464.538 394.101 464.292" stroke="#F2E205" stroke-width="3.3615"/>
</g>
<mask id="mask4_735_67324" style="mask-type:luminance" maskUnits="userSpaceOnUse" x="130" y="84" width="644" height="644">
<path d="M628.446 84.0293L130.868 229.476L276.315 727.054L773.893 581.607L628.446 84.0293Z" fill="white"/>
</mask>
<g mask="url(#mask4_735_67324)">
<path d="M334.985 348.882L333.238 348.935L332.203 347.525L331.714 349.204L330.054 349.752L331.499 350.736L331.507 352.484L332.89 351.414L334.555 351.947L333.964 350.301L334.985 348.882Z" fill="#F20519"/>
<path d="M415.435 259.933L413.687 259.986L412.653 258.576L412.163 260.255L410.503 260.803L411.948 261.787L411.956 263.536L413.339 262.466L415.004 262.998L414.414 261.352L415.435 259.933Z" fill="#F20519"/>
<path d="M350.077 342.06L348.33 342.113L347.295 340.703L346.806 342.382L345.145 342.93L346.59 343.914L346.599 345.663L347.981 344.592L349.647 345.125L349.056 343.479L350.077 342.06Z" fill="#176FA6"/>
<path d="M402.937 288.01L401.19 288.063L400.156 286.653L399.666 288.331L398.006 288.88L399.451 289.864L399.459 291.612L400.842 290.542L402.507 291.074L401.917 289.429L402.937 288.01Z" fill="#176FA6"/>
<path d="M359.159 343.864L357.412 343.917L356.377 342.508L355.888 344.186L354.228 344.734L355.672 345.718L355.681 347.467L357.063 346.397L358.729 346.929L358.138 345.283L359.159 343.864Z" fill="#F2E205"/>
<path d="M475.653 266.989L473.906 267.043L472.871 265.633L472.382 267.311L470.722 267.86L472.167 268.844L472.175 270.592L473.558 269.522L475.223 270.054L474.632 268.409L475.653 266.989Z" fill="#F2E205"/>
<path d="M435.515 251.211L434.308 253.581L435.331 255.505L436.538 253.135L435.515 251.211Z" fill="#176FA6"/>
<path d="M382.483 299.871L381.275 302.241L382.298 304.165L383.506 301.795L382.483 299.871Z" fill="#176FA6"/>
<path d="M373.995 310.331L372.788 312.701L373.811 314.625L375.019 312.255L373.995 310.331Z" fill="#F205B3"/>
<path d="M444.24 270.956L443.033 273.326L444.056 275.25L445.264 272.88L444.24 270.956Z" fill="#F205B3"/>
<path d="M383.263 291.14C382.88 290.42 381.985 290.147 381.265 290.529C380.545 290.912 380.272 291.807 380.655 292.527C381.037 293.247 381.932 293.52 382.652 293.137C383.372 292.755 383.645 291.86 383.263 291.14Z" fill="#F29F05"/>
<path d="M406.961 286.608C406.578 285.888 405.683 285.614 404.963 285.997C404.244 286.38 403.97 287.275 404.353 287.995C404.736 288.714 405.631 288.988 406.35 288.605C407.07 288.222 407.344 287.327 406.961 286.608Z" fill="#F29F05"/>
<path d="M399.283 376.647C404.486 373.661 393.295 369.206 379.534 370.412" stroke="#F205B3" stroke-width="3.3615"/>
<path d="M437.031 305.026C441.842 308.609 441.473 296.571 434.889 284.427" stroke="#F205B3" stroke-width="3.3615"/>
<path d="M462.703 328.031C466.276 321.959 469.58 313.419 470.17 319.768C470.942 328.089 464.391 327.575 460.148 317.297" stroke="#F2E205" stroke-width="3.3615"/>
<path d="M387.523 342.084C383.399 336.372 376.907 329.913 382.958 331.926C390.888 334.563 387.784 340.355 376.667 340.109" stroke="#F2E205" stroke-width="3.3615"/>
</g>
<mask id="mask5_735_67324" style="mask-type:luminance" maskUnits="userSpaceOnUse" x="249" y="103" width="644" height="644">
<path d="M747.146 103.693L249.569 249.14L395.015 746.718L892.593 601.271L747.146 103.693Z" fill="white"/>
</mask>
<g mask="url(#mask5_735_67324)">
<path d="M453.686 368.545L451.938 368.598L450.904 367.189L450.414 368.867L448.754 369.415L450.199 370.4L450.207 372.148L451.59 371.078L453.255 371.61L452.665 369.965L453.686 368.545Z" fill="#F20519"/>
<path d="M534.135 279.596L532.387 279.649L531.353 278.24L530.863 279.918L529.203 280.467L530.648 281.451L530.656 283.199L532.039 282.129L533.704 282.661L533.114 281.016L534.135 279.596Z" fill="#F20519"/>
<path d="M468.777 361.723L467.03 361.776L465.995 360.367L465.506 362.045L463.846 362.594L465.291 363.578L465.299 365.326L466.682 364.256L468.347 364.788L467.756 363.143L468.777 361.723Z" fill="#176FA6"/>
<path d="M521.638 307.673L519.89 307.726L518.856 306.317L518.366 307.995L516.706 308.543L518.151 309.528L518.159 311.276L519.542 310.206L521.207 310.738L520.617 309.092L521.638 307.673Z" fill="#176FA6"/>
<path d="M477.859 363.528L476.112 363.581L475.077 362.171L474.588 363.85L472.928 364.398L474.373 365.382L474.381 367.13L475.764 366.06L477.429 366.593L476.839 364.947L477.859 363.528Z" fill="#F2E205"/>
<path d="M594.354 286.653L592.606 286.706L591.572 285.297L591.082 286.975L589.422 287.523L590.867 288.508L590.875 290.256L592.258 289.186L593.923 289.718L593.333 288.072L594.354 286.653Z" fill="#F2E205"/>
<path d="M554.215 270.875L553.008 273.245L554.031 275.169L555.238 272.798L554.215 270.875Z" fill="#176FA6"/>
<path d="M501.183 319.535L499.975 321.905L500.999 323.829L502.206 321.458L501.183 319.535Z" fill="#176FA6"/>
<path d="M492.696 329.995L491.488 332.365L492.511 334.289L493.719 331.918L492.696 329.995Z" fill="#F205B3"/>
<path d="M562.941 290.62L561.733 292.99L562.756 294.914L563.964 292.543L562.941 290.62Z" fill="#F205B3"/>
<path d="M501.963 310.803C501.58 310.084 500.685 309.81 499.965 310.193C499.246 310.576 498.972 311.471 499.355 312.191C499.738 312.91 500.633 313.184 501.352 312.801C502.072 312.418 502.345 311.523 501.963 310.803Z" fill="#F29F05"/>
<path d="M525.661 306.271C525.278 305.552 524.383 305.278 523.663 305.661C522.944 306.044 522.67 306.939 523.053 307.658C523.436 308.378 524.331 308.651 525.051 308.269C525.77 307.886 526.044 306.991 525.661 306.271Z" fill="#F29F05"/>
<path d="M517.983 396.311C523.186 393.324 511.995 388.87 498.234 390.075" stroke="#F205B3" stroke-width="3.3615"/>
<path d="M555.731 324.689C560.542 328.273 560.173 316.234 553.589 304.09" stroke="#F205B3" stroke-width="3.3615"/>
<path d="M581.404 347.695C584.976 341.622 588.28 333.082 588.87 339.432C589.642 347.753 583.091 347.239 578.848 336.961" stroke="#F2E205" stroke-width="3.3615"/>
<path d="M506.223 361.747C502.099 356.035 495.607 349.577 501.658 351.589C509.588 354.227 506.484 360.019 495.368 359.773" stroke="#F2E205" stroke-width="3.3615"/>
</g>
<mask id="mask6_735_67324" style="mask-type:luminance" maskUnits="userSpaceOnUse" x="-244" y="-24" width="1359" height="1359">
<path d="M438.654 -23.0659L1114.2 659.017L432.118 1334.56L-243.429 652.481L438.654 -23.0659Z" fill="white"/>
</mask>
<g mask="url(#mask6_735_67324)">
<path d="M468.251 908.261C468.251 908.261 395.134 606.217 401.007 630.848C406.881 655.479 535.528 647.082 539.549 631.515C539.582 631.191 468.251 908.261 468.251 908.261Z" fill="#F2E53C"/>
<g opacity="0.5">
<path d="M538.845 632.575C539.586 632.434 526.906 681.042 526.529 682.152C526.207 683.101 512.881 697.223 487.873 708.718C458.438 722.248 423.495 722.67 423.495 722.67L413.698 683.87C413.698 683.87 445.836 688.68 473.968 676.695C501.825 664.827 530.788 640.165 538.845 632.575Z" fill="#F205B3"/>
</g>
</g>
<mask id="mask7_735_67324" style="mask-type:luminance" maskUnits="userSpaceOnUse" x="-244" y="-24" width="1359" height="1359">
<path d="M438.654 -23.0659L1114.2 659.017L432.118 1334.56L-243.429 652.481L438.654 -23.0659Z" fill="white"/>
</mask>
<g mask="url(#mask7_735_67324)">
<g style="mix-blend-mode:overlay">
<mask id="mask8_735_67324" style="mask-type:luminance" maskUnits="userSpaceOnUse" x="468" y="604" width="95" height="308">
<path d="M562.353 610.751L473.551 604.755L468.427 911.862L562.353 610.751Z" fill="white"/>
</mask>
<g mask="url(#mask8_735_67324)">
<path d="M468.251 908.262C468.251 908.262 395.134 606.218 401.007 630.849C406.881 655.48 535.528 647.083 539.549 631.516C539.582 631.192 468.251 908.262 468.251 908.262Z" fill="#F2E53C"/>
<g opacity="0.5">
<path d="M538.845 632.576C539.586 632.434 526.906 681.043 526.529 682.153C526.207 683.101 512.881 697.223 487.873 708.718C458.438 722.248 423.495 722.67 423.495 722.67L413.698 683.87C413.698 683.87 445.836 688.68 473.968 676.695C501.825 664.828 530.788 640.166 538.845 632.576Z" fill="#F205B3"/>
</g>
</g>
</g>
</g>
</svg>
