<svg width="18" height="22" viewBox="0 0 18 22" fill="none" xmlns="http://www.w3.org/2000/svg">
<path d="M15.3529 5.1682C15.3529 7.84371 12.8739 11.0002 9.12314 11.0002H5.51022L5.33287 12.1148L4.49 17.4802H0L2.70114 0.200195H9.97565C12.4252 0.200195 14.3524 1.56004 15.0623 3.4498C15.267 3.99924 15.3656 4.58227 15.3529 5.1682Z" fill="#002991"/>
<path d="M17.9408 10.136C17.7012 11.5862 16.9512 12.9042 15.825 13.8541C14.6989 14.8039 13.2701 15.3235 11.7945 15.32H9.28561L8.2413 21.8H3.77539L4.49007 17.48L5.33342 12.1145L5.51029 11H9.1232C12.8691 11 15.3529 7.84349 15.3529 5.16797C17.1963 6.11549 18.2709 8.03021 17.9408 10.136Z" fill="#60CDFF"/>
<path d="M15.3524 5.16802C14.5794 4.7653 13.6421 4.52002 12.6219 4.52002H6.53046L5.50977 11H9.12268C12.8686 11 15.3524 7.84354 15.3524 5.16802Z" fill="#008CFF"/>
</svg>
