<svg width="22" height="22" viewBox="0 0 22 22" fill="none" xmlns="http://www.w3.org/2000/svg">
<rect x="0.15" y="0.15" width="21.7" height="21.7" rx="1.85" stroke="black" stroke-width="0.3"/>
<path d="M2.75 4.125C2.75 3.36561 3.36561 2.75 4.125 2.75H5.95833C6.71773 2.75 7.33333 3.36561 7.33333 4.125V5.95833C7.33333 6.71773 6.71773 7.33333 5.95833 7.33333H4.125C3.36561 7.33333 2.75 6.71773 2.75 5.95833V4.125Z" stroke="#121212" stroke-width="1.2"/>
<path d="M2.75 16.0417C2.75 15.2824 3.36561 14.6667 4.125 14.6667H5.95833C6.71773 14.6667 7.33333 15.2824 7.33333 16.0417V17.8751C7.33333 18.6344 6.71773 19.2501 5.95833 19.2501H4.125C3.36561 19.2501 2.75 18.6344 2.75 17.8751V16.0417Z" stroke="#121212" stroke-width="1.2"/>
<path d="M7.33378 16.9584H19.2504M14.6671 5.04175H7.33378M14.9636 7.03686L7.01172 14.9888" stroke="#121212" stroke-width="1.2" stroke-linecap="round" stroke-linejoin="round"/>
<path d="M14.666 4.125C14.666 3.36561 15.2816 2.75 16.041 2.75H17.8743C18.6337 2.75 19.2493 3.36561 19.2493 4.125V5.95833C19.2493 6.71773 18.6337 7.33333 17.8743 7.33333H16.041C15.2816 7.33333 14.666 6.71773 14.666 5.95833V4.125Z" stroke="#121212" stroke-width="1.2"/>
<path d="M16.5 19.2501L17.7726 18.3826C18.7576 17.7113 19.25 17.3756 19.25 16.9584C19.25 16.5412 18.7576 16.2056 17.7726 15.5342L16.5 14.6667" stroke="#121212" stroke-width="1.2" stroke-linecap="round" stroke-linejoin="round"/>
</svg>
