<svg width="34" height="34" viewBox="0 0 34 34" fill="none" xmlns="http://www.w3.org/2000/svg">
<path d="M11.332 19.1253H22.6654M11.332 12.042H16.9987" stroke="#016FDE" stroke-width="2.5" stroke-linecap="round" stroke-linejoin="round"/>
<path d="M8.63868 26.917C6.79686 26.7358 5.41709 26.1826 4.49176 25.2572C2.83203 23.5976 2.83203 20.9262 2.83203 15.5837V14.8753C2.83203 9.53274 2.83203 6.86145 4.49176 5.20172C6.15149 3.54199 8.82277 3.54199 14.1654 3.54199H19.832C25.1746 3.54199 27.846 3.54199 29.5056 5.20172C31.1654 6.86145 31.1654 9.53274 31.1654 14.8753V15.5837C31.1654 20.9262 31.1654 23.5976 29.5056 25.2572C27.846 26.917 25.1746 26.917 19.832 26.917C19.038 26.9347 18.4056 26.9951 17.7844 27.1366C16.0866 27.5274 14.5146 28.3961 12.961 29.1538C10.7474 30.2331 9.64053 30.7729 8.94593 30.2676C7.61709 29.2779 8.91596 26.2114 9.20703 24.792" stroke="#016FDE" stroke-width="2.5" stroke-linecap="round"/>
</svg>
