<svg width="25" height="24" viewBox="0 0 25 24" fill="none" xmlns="http://www.w3.org/2000/svg">
<path d="M2.95898 9C4.2364 4.94289 8.03609 2 12.5248 2C17.723 2 21.9971 5.94668 22.5 11L20.5 10.5929" stroke="white" stroke-opacity="0.44" stroke-width="1.5" stroke-linecap="round" stroke-linejoin="round"/>
<path d="M22.041 15C20.7636 19.0571 16.9639 22 12.4752 22C7.27707 22 3.00297 18.0533 2.5 13L4.50005 13.4071" stroke="white" stroke-opacity="0.44" stroke-width="1.5" stroke-linecap="round" stroke-linejoin="round"/>
<path d="M9.50198 13.5279V15.5197C9.50198 15.8464 9.65779 16.1573 9.93401 16.3301C10.7776 16.8578 11.4193 17.0125 12.5054 17.046C13.5061 17.0729 14.1336 16.9156 15.0679 16.3316C15.3481 16.1564 15.5089 15.8427 15.5089 15.5113V13.5279M17.5112 11.0149V14.0304M7.54924 10.8436C7.91086 10.0796 10.1536 8.74957 12.2009 8.09253C12.3984 8.02914 12.6106 8.03542 12.8053 8.10674C14.6154 8.76943 16.6288 9.77168 17.3597 10.5853C17.7414 11.01 17.3682 11.552 16.9068 11.8874C15.9704 12.5682 14.9364 13.0978 12.8491 13.8996C12.6282 13.9844 12.3828 13.9873 12.1608 13.9049C10.0201 13.1101 8.01902 12.0842 7.56587 11.1817C7.51245 11.0752 7.4983 10.9512 7.54924 10.8436Z" stroke="white" stroke-opacity="0.44" stroke-width="1.5" stroke-linecap="round" stroke-linejoin="round"/>
</svg>
