<svg width="34" height="34" viewBox="0 0 34 34" fill="none" xmlns="http://www.w3.org/2000/svg">
<path d="M14.875 11.333H26.2083M14.875 16.9997H18.4167M26.2083 16.9997H22.6667M14.875 22.6663H18.4167M26.2083 22.6663H22.6667" stroke="#016FDE" stroke-width="2.5" stroke-linecap="round" stroke-linejoin="round"/>
<path d="M9.91536 10.625H8.4987C5.8274 10.625 4.49176 10.625 3.6619 11.4549C2.83203 12.2847 2.83203 13.6204 2.83203 16.2917V25.5C2.83203 27.456 4.41769 29.0417 6.3737 29.0417C8.3297 29.0417 9.91536 27.456 9.91536 25.5V10.625Z" stroke="#016FDE" stroke-width="2.5" stroke-linecap="round" stroke-linejoin="round"/>
<path d="M22.6667 4.95801H15.5833C14.2658 4.95801 13.6071 4.95801 13.0667 5.10282C11.6 5.4958 10.4545 6.64139 10.0615 8.10802C9.91667 8.64848 9.91667 9.30722 9.91667 10.6247V25.4997C9.91667 27.4557 8.33101 29.0413 6.375 29.0413H22.6667C26.6736 29.0413 28.677 29.0413 29.9218 27.7965C31.1667 26.5517 31.1667 24.5482 31.1667 20.5413V13.458C31.1667 9.45107 31.1667 7.4476 29.9218 6.2028C28.677 4.95801 26.6736 4.95801 22.6667 4.95801Z" stroke="#016FDE" stroke-width="2.5" stroke-linecap="round" stroke-linejoin="round"/>
</svg>
