<svg width="34" height="34" viewBox="0 0 34 34" fill="none" xmlns="http://www.w3.org/2000/svg">
<path d="M31.1654 16.9997C31.1654 9.17564 24.8227 2.83301 16.9987 2.83301C9.17466 2.83301 2.83203 9.17564 2.83203 16.9997C2.83203 24.8236 9.17466 31.1663 16.9987 31.1663C18.1911 31.1663 19.832 31.3311 19.832 29.7497C19.832 28.8869 19.3832 28.2214 18.9375 27.5601C18.2853 26.5926 17.6395 25.6347 18.4154 24.083C19.3599 22.1942 20.9339 22.1942 23.3475 22.1942C24.5543 22.1942 25.971 22.1942 27.6237 21.958C30.6001 21.5329 31.1654 19.7032 31.1654 16.9997Z" stroke="#016FDE" stroke-width="2.5"/>
<path d="M9.91797 21.2524L9.93027 21.249" stroke="#016FDE" stroke-width="2.5" stroke-linecap="round" stroke-linejoin="round"/>
<path d="M13.457 14.167C14.6306 14.167 15.582 13.2156 15.582 12.042C15.582 10.8684 14.6306 9.91699 13.457 9.91699C12.2834 9.91699 11.332 10.8684 11.332 12.042C11.332 13.2156 12.2834 14.167 13.457 14.167Z" stroke="#016FDE" stroke-width="2.5"/>
<path d="M23.375 15.583C24.5486 15.583 25.5 14.6316 25.5 13.458C25.5 12.2844 24.5486 11.333 23.375 11.333C22.2014 11.333 21.25 12.2844 21.25 13.458C21.25 14.6316 22.2014 15.583 23.375 15.583Z" stroke="#016FDE" stroke-width="1.5"/>
</svg>
