<svg width="25" height="24" viewBox="0 0 25 24" fill="none" xmlns="http://www.w3.org/2000/svg">
<path d="M3 12C3 7.52166 3 5.28249 4.39124 3.89124C5.78249 2.5 8.02166 2.5 12.5 2.5C16.9783 2.5 19.2175 2.5 20.6088 3.89124C22 5.28249 22 7.52166 22 12C22 16.4783 22 18.7175 20.6088 20.1088C19.2175 21.5 16.9783 21.5 12.5 21.5C8.02166 21.5 5.78249 21.5 4.39124 20.1088C3 18.7175 3 16.4783 3 12Z" stroke="white" stroke-opacity="0.44" stroke-width="1.5" stroke-linejoin="round"/>
<path d="M9 10C8.17157 10 7.5 9.32843 7.5 8.5C7.5 7.67157 8.17157 7 9 7C9.82843 7 10.5 7.67157 10.5 8.5C10.5 9.32843 9.82843 10 9 10Z" stroke="white" stroke-opacity="0.44" stroke-width="1.5"/>
<path d="M16 17C16.8284 17 17.5 16.3284 17.5 15.5C17.5 14.6716 16.8284 14 16 14C15.1716 14 14.5 14.6716 14.5 15.5C14.5 16.3284 15.1716 17 16 17Z" stroke="white" stroke-opacity="0.44" stroke-width="1.5"/>
<path d="M10.5 8.5H17.5" stroke="white" stroke-opacity="0.44" stroke-width="1.5" stroke-linecap="round"/>
<path d="M14.5 15.5H7.5" stroke="white" stroke-opacity="0.44" stroke-width="1.5" stroke-linecap="round"/>
</svg>
