<svg width="45" height="40" viewBox="0 0 45 40" fill="none" xmlns="http://www.w3.org/2000/svg">
<rect width="45" height="40" rx="4" fill="white"/>
<rect x="0.25" y="0.25" width="44.5" height="39.5" rx="3.75" stroke="#121212" stroke-opacity="0.44" stroke-width="0.5"/>
<g clip-path="url(#clip0_735_65719)">
<path d="M32.3735 16.3743C30.7349 17.385 29.7229 19.1176 29.7229 21.0428C29.7229 23.2086 31.0241 25.1818 33 26C32.6145 27.2513 32.0361 28.4064 31.3133 29.4652C30.253 30.9572 29.1446 32.4973 27.506 32.4973C25.8675 32.4973 25.3855 31.5348 23.4578 31.5348C21.5783 31.5348 20.9036 32.5455 19.3614 32.5455C17.8193 32.5455 16.759 31.1497 15.5542 29.4171C13.9639 27.0107 13.0482 24.2193 13 21.2834C13 16.5187 16.0843 13.9679 19.1687 13.9679C20.8072 13.9679 22.1566 15.0267 23.1687 15.0267C24.1325 15.0267 25.6747 13.9198 27.506 13.9198C29.4337 13.8717 31.2651 14.7861 32.3735 16.3743ZM26.6386 11.8984C27.4578 10.9358 27.8916 9.73262 27.9398 8.48128C27.9398 8.3369 27.9398 8.14439 27.8916 8C26.494 8.14439 25.1928 8.81818 24.2771 9.87701C23.4578 10.7914 22.9759 11.9465 22.9277 13.1979C22.9277 13.3422 22.9277 13.4866 22.9759 13.631C23.0723 13.631 23.2169 13.6791 23.3133 13.6791C24.6145 13.5829 25.8193 12.9091 26.6386 11.8984Z" fill="black"/>
</g>
<defs>
<clipPath id="clip0_735_65719">
<rect width="20" height="24.5455" fill="white" transform="translate(13 8)"/>
</clipPath>
</defs>
</svg>
