<svg width="28" height="25" viewBox="0 0 28 25" fill="none" xmlns="http://www.w3.org/2000/svg">
<g clip-path="url(#clip0_735_61529)">
<path d="M0 0.169922H28V24.1699H0V0.169922Z" fill="#012169"/>
<path d="M3.28125 0.169922L13.9563 9.21992L24.5875 0.169922H28V3.26992L17.5 12.2199L28 21.1199V24.1699H24.5L14 15.2199L3.54375 24.1699H0V21.1699L10.4563 12.2699L0 3.36992V0.169922H3.28125Z" fill="white"/>
<path d="M18.55 14.2199L28 22.1699V24.1699L16.1437 14.2199H18.55ZM10.5 15.2199L10.7625 16.9699L2.3625 24.1699H0L10.5 15.2199ZM28 0.169922V0.319922L17.1062 9.71992L17.1938 7.51992L25.8125 0.169922H28ZM0 0.169922L10.4563 8.96992H7.83125L0 2.26992V0.169922Z" fill="#C8102E"/>
<path d="M10.5437 0.169922V24.1699H17.5437V0.169922H10.5437ZM0 8.16992V16.1699H28V8.16992H0Z" fill="white"/>
<path d="M0 9.81992V14.6199H28V9.81992H0ZM11.9437 0.169922V24.1699H16.1437V0.169922H11.9437Z" fill="#C8102E"/>
</g>
<defs>
<clipPath id="clip0_735_61529">
<rect width="28" height="24" fill="white" transform="translate(0 0.169922)"/>
</clipPath>
</defs>
</svg>
