<svg width="20" height="20" viewBox="0 0 20 20" fill="none" xmlns="http://www.w3.org/2000/svg">
<path d="M14.1355 7.48369C14.1335 5.02523 14.0963 3.75181 13.3806 2.87989C13.2424 2.7115 13.088 2.5571 12.9197 2.41891C11.9997 1.66406 10.6332 1.66406 7.8998 1.66406C5.16648 1.66406 3.79982 1.66406 2.87997 2.41891C2.71157 2.5571 2.55716 2.7115 2.41896 2.87989C1.66406 3.79968 1.66406 5.16625 1.66406 7.89937C1.66406 10.6325 1.66406 11.999 2.41896 12.9189C2.55715 13.0872 2.71157 13.2416 2.87997 13.3798C3.75195 14.0954 5.02546 14.1326 7.48408 14.1346" stroke="#FEFEFE" stroke-linecap="round" stroke-linejoin="round"/>
<path d="M11.6893 7.51989L14.1607 7.48438M11.6777 18.3339L14.149 18.2983M18.3087 11.6845L18.2854 14.1509M7.50768 11.6958L7.48438 14.1622M9.57182 7.51989C8.87783 7.64419 7.76392 7.77204 7.50768 9.20677M16.2446 18.2983C16.9404 18.1847 18.0562 18.0739 18.3345 16.6433M16.2446 7.51989C16.9386 7.64419 18.0525 7.77204 18.3087 9.20677M9.58241 18.2972C8.88841 18.1733 7.7744 18.046 7.51738 16.6114" stroke="#FEFEFE" stroke-linecap="round" stroke-linejoin="round"/>
</svg>
