<svg width="16" height="16" viewBox="0 0 16 16" fill="none" xmlns="http://www.w3.org/2000/svg">
<path d="M1.66797 8.0013C1.66797 5.01574 1.66797 3.52296 2.59546 2.59546C3.52296 1.66797 5.01574 1.66797 8.0013 1.66797C10.9868 1.66797 12.4796 1.66797 13.4072 2.59546C14.3346 3.52296 14.3346 5.01574 14.3346 8.0013C14.3346 10.9868 14.3346 12.4796 13.4072 13.4072C12.4796 14.3346 10.9868 14.3346 8.0013 14.3346C5.01574 14.3346 3.52296 14.3346 2.59546 13.4072C1.66797 12.4796 1.66797 10.9868 1.66797 8.0013Z" stroke="#121212"/>
<path d="M11 6C11.5523 6 12 5.55228 12 5C12 4.44772 11.5523 4 11 4C10.4477 4 10 4.44772 10 5C10 5.55228 10.4477 6 11 6Z" stroke="#121212"/>
<path d="M10.6667 14.6654C10.2537 13.182 9.28967 11.8534 7.91767 10.8882C6.43841 9.84728 4.58109 9.29642 2.67713 9.33382C2.45105 9.33328 2.22517 9.34048 2 9.35542" stroke="#121212" stroke-linejoin="round"/>
<path d="M8.66797 12.0013C9.8023 11.1168 11.0243 10.6631 12.2588 10.668C12.9588 10.6673 13.6554 10.8157 14.3346 11.1091" stroke="#121212" stroke-linejoin="round"/>
</svg>
