<svg width="16" height="16" viewBox="0 0 16 16" fill="none" xmlns="http://www.w3.org/2000/svg">
<path d="M2.59257 6.44196C2.92887 6.66667 3.39703 6.66667 4.33333 6.66667C5.26964 6.66667 5.73779 6.66667 6.07409 6.44196C6.21968 6.34468 6.34468 6.21968 6.44196 6.07409C6.66667 5.73779 6.66667 5.26964 6.66667 4.33333C6.66667 3.39703 6.66667 2.92887 6.44196 2.59257C6.34468 2.44699 6.21968 2.32199 6.07409 2.22471C5.73779 2 5.26964 2 4.33333 2C3.39703 2 2.92887 2 2.59257 2.22471C2.44699 2.32199 2.32199 2.44699 2.22471 2.59257C2 2.92887 2 3.39703 2 4.33333C2 5.26964 2 5.73779 2.22471 6.07409C2.32199 6.21968 2.44699 6.34468 2.59257 6.44196Z" stroke="#121212" stroke-linecap="round" stroke-linejoin="round"/>
<path d="M9.87136 6.66667H13.4594C13.7572 6.66667 13.9987 6.42519 13.9987 6.12732C13.9987 6.04359 13.9792 5.96101 13.9418 5.88612L12.1478 2.29814C12.0564 2.11542 11.8696 2 11.6654 2C11.4611 2 11.2743 2.11542 11.183 2.29814L9.38896 5.88612C9.3515 5.96101 9.33203 6.04359 9.33203 6.12732C9.33203 6.42519 9.5735 6.66667 9.87136 6.66667Z" stroke="#121212" stroke-linecap="round" stroke-linejoin="round"/>
<path d="M4.33333 13.9987C5.622 13.9987 6.66667 12.954 6.66667 11.6654C6.66667 10.3767 5.622 9.33203 4.33333 9.33203C3.04467 9.33203 2 10.3767 2 11.6654C2 12.954 3.04467 13.9987 4.33333 13.9987Z" stroke="#121212" stroke-linecap="round" stroke-linejoin="round"/>
<path d="M13.668 10.0013V11.668C13.668 12.6108 13.668 13.0822 13.3751 13.3751C13.0822 13.668 12.6108 13.668 11.668 13.668H10.0013M9.66797 9.66797L13.0013 13.0013" stroke="#121212" stroke-linecap="round" stroke-linejoin="round"/>
</svg>
