<svg width="16" height="16" viewBox="0 0 16 16" fill="none" xmlns="http://www.w3.org/2000/svg">
<path d="M1.33203 8.0013C1.33203 5.01574 1.33203 3.52296 2.25952 2.59546C3.18702 1.66797 4.6798 1.66797 7.66536 1.66797C10.6509 1.66797 12.1437 1.66797 13.0712 2.59546C13.9987 3.52296 13.9987 5.01574 13.9987 8.0013C13.9987 10.9868 13.9987 12.4796 13.0712 13.4072C12.1437 14.3346 10.6509 14.3346 7.66536 14.3346C4.6798 14.3346 3.18702 14.3346 2.25952 13.4072C1.33203 12.4796 1.33203 10.9868 1.33203 8.0013Z" fill="#FBBC09" stroke="#FBBC09" stroke-width="1.5" stroke-linejoin="round"/>
<path d="M8.24123 5.14936L8.82783 6.33226C8.90783 6.49693 9.12117 6.65487 9.3011 6.6851L10.3644 6.86324C11.0443 6.9775 11.2042 7.47484 10.7143 7.96544L9.8877 8.7989C9.74777 8.94004 9.6711 9.21224 9.71443 9.4071L9.95103 10.4388C10.1377 11.2554 9.70777 11.5713 8.99117 11.1445L7.99463 10.5497C7.81463 10.4422 7.51797 10.4422 7.3347 10.5497L6.33812 11.1445C5.62486 11.5713 5.19158 11.252 5.37823 10.4388L5.61487 9.4071C5.6582 9.21224 5.58154 8.94004 5.44155 8.7989L4.61498 7.96544C4.12837 7.47484 4.28501 6.9775 4.96494 6.86324L6.02816 6.6851C6.20481 6.65487 6.41811 6.49693 6.49811 6.33226L7.0847 5.14936C7.4047 4.5075 7.92463 4.5075 8.24123 5.14936Z" fill="white" stroke="white" stroke-width="1.5" stroke-linecap="round" stroke-linejoin="round"/>
</svg>
