<svg width="16" height="16" viewBox="0 0 16 16" fill="none" xmlns="http://www.w3.org/2000/svg">
<path d="M13.3346 12.0013V4.0013M4.0013 13.3346H12.0013M12.0013 2.66797H4.0013M2.66797 4.0013V12.0013" stroke="#121212" stroke-linecap="round" stroke-linejoin="round"/>
<path d="M5.33267 6.66536C5.13675 5.61955 5.82269 5.37168 7.97093 5.33203M7.97093 5.33203C9.96893 5.37693 10.7925 5.53559 10.6092 6.66536M7.97093 5.33203V10.6654M6.9816 10.6654H8.96033" stroke="#121212" stroke-linecap="round" stroke-linejoin="round"/>
<path d="M14 1.33203H12.6667C12.2985 1.33203 12 1.63051 12 1.9987V3.33203C12 3.70022 12.2985 3.9987 12.6667 3.9987H14C14.3682 3.9987 14.6667 3.70022 14.6667 3.33203V1.9987C14.6667 1.63051 14.3682 1.33203 14 1.33203Z" stroke="#121212"/>
<path d="M3.33203 1.33203H1.9987C1.63051 1.33203 1.33203 1.63051 1.33203 1.9987V3.33203C1.33203 3.70022 1.63051 3.9987 1.9987 3.9987H3.33203C3.70022 3.9987 3.9987 3.70022 3.9987 3.33203V1.9987C3.9987 1.63051 3.70022 1.33203 3.33203 1.33203Z" stroke="#121212"/>
<path d="M14 12H12.6667C12.2985 12 12 12.2985 12 12.6667V14C12 14.3682 12.2985 14.6667 12.6667 14.6667H14C14.3682 14.6667 14.6667 14.3682 14.6667 14V12.6667C14.6667 12.2985 14.3682 12 14 12Z" stroke="#121212"/>
<path d="M3.33203 12H1.9987C1.63051 12 1.33203 12.2985 1.33203 12.6667V14C1.33203 14.3682 1.63051 14.6667 1.9987 14.6667H3.33203C3.70022 14.6667 3.9987 14.3682 3.9987 14V12.6667C3.9987 12.2985 3.70022 12 3.33203 12Z" stroke="#121212"/>
</svg>
