<svg width="18" height="22" viewBox="0 0 18 22" fill="none" xmlns="http://www.w3.org/2000/svg">
<g clip-path="url(#clip0_2854_73722)">
<path d="M15.3529 5.1682C15.3529 7.84371 12.8739 11.0002 9.12314 11.0002H5.51022L5.33287 12.1148L4.49 17.4802H0L2.70114 0.200195H9.97565C12.4252 0.200195 14.3524 1.56004 15.0623 3.4498C15.267 3.99924 15.3656 4.58227 15.3529 5.1682Z" fill="#002991"/>
<path d="M17.9389 10.136C17.6992 11.5862 16.9492 12.9042 15.8231 13.8541C14.6969 14.8039 13.2682 15.3235 11.7925 15.32H9.28366L8.23935 21.8H3.77344L4.48812 17.48L5.33147 12.1145L5.50833 11H9.12125C12.8672 11 15.351 7.84349 15.351 5.16797C17.1943 6.11549 18.269 8.03021 17.9389 10.136Z" fill="#60CDFF"/>
<path d="M15.3544 5.16802C14.5814 4.7653 13.644 4.52002 12.6238 4.52002H6.53242L5.51172 11H9.12464C12.8706 11 15.3544 7.84354 15.3544 5.16802Z" fill="#008CFF"/>
</g>
<defs>
<clipPath id="clip0_2854_73722">
<rect width="18" height="21.6" fill="white" transform="translate(0 0.200195)"/>
</clipPath>
</defs>
</svg>
